<svg id="visual" viewBox="0 0 900 600" width="900" height="600" xmlns="http://www.w3.org/2000/svg" xmlns:xlink="http://www.w3.org/1999/xlink" version="1.1"><path d="M0 61L75 63C150 65 300 69 450 70C600 71 750 69 825 68L900 67L900 0L825 0C750 0 600 0 450 0C300 0 150 0 75 0L0 0Z" fill="#0d811c"></path><path d="M0 139L75 147C150 155 300 171 450 176C600 181 750 175 825 172L900 169L900 65L825 66C750 67 600 69 450 68C300 67 150 63 75 61L0 59Z" fill="#087016"></path><path d="M0 331L75 341C150 351 300 371 450 364C600 357 750 323 825 306L900 289L900 167L825 170C750 173 600 179 450 174C300 169 150 153 75 145L0 137Z" fill="#046011"></path><path d="M0 361L75 375C150 389 300 417 450 425C600 433 750 421 825 415L900 409L900 287L825 304C750 321 600 355 450 362C300 369 150 349 75 339L0 329Z" fill="#01510c"></path><path d="M0 463L75 473C150 483 300 503 450 507C600 511 750 499 825 493L900 487L900 407L825 413C750 419 600 431 450 423C300 415 150 387 75 373L0 359Z" fill="#00460a"></path><path d="M0 505L75 510C150 515 300 525 450 525C600 525 750 515 825 510L900 505L900 485L825 491C750 497 600 509 450 505C300 501 150 481 75 471L0 461Z" fill="#02410c"></path><path d="M0 535L75 538C150 541 300 547 450 550C600 553 750 553 825 553L900 553L900 503L825 508C750 513 600 523 450 523C300 523 150 513 75 508L0 503Z" fill="#033b0d"></path><path d="M0 601L75 601C150 601 300 601 450 601C600 601 750 601 825 601L900 601L900 551L825 551C750 551 600 551 450 548C300 545 150 539 75 536L0 533Z" fill="#04360d"></path></svg>